HIERARCHY
ROOT joint_0
{
	OFFSET 0.000000 0.000000 0.000000
	CHANNELS 6 Xposition Yposition Zposition Zrotation Yrotation Xrotation 
	JOINT joint_1
	{
		OFFSET 1.363060 -1.794630 0.839290
		CHANNELS 3 Zrotation Yrotation Xrotation
		JOINT joint_2
		{
			OFFSET 2.448110 -6.726130 0.000000
			CHANNELS 3 Zrotation Yrotation Xrotation
			JOINT joint_3
			{
				OFFSET 2.562200 -7.039590 0.000000
				CHANNELS 3 Zrotation Yrotation Xrotation
				JOINT joint_4
				{
					OFFSET 0.157640 -0.433110 2.322550
					CHANNELS 3 Zrotation Yrotation Xrotation
					End Site
					{
						OFFSET 0.000000 0.000000 0.000000
					}
				}
			}
		}
	}
	JOINT joint_5
	{
		OFFSET -1.305520 -1.794630 0.839290
		CHANNELS 3 Zrotation Yrotation Xrotation
		JOINT joint_6
		{
			OFFSET -2.542530 -6.985550 0.000000
			CHANNELS 3 Zrotation Yrotation Xrotation
			JOINT joint_7
			{
				OFFSET -2.568260 -7.056230 0.000000
				CHANNELS 3 Zrotation Yrotation Xrotation
				JOINT joint_8
				{
					OFFSET -0.164730 -0.452590 2.363150
					CHANNELS 3 Zrotation Yrotation Xrotation
					End Site
					{
						OFFSET 0.000000 0.000000 0.000000
					}
				}
			}
		}
	}
	JOINT joint_9
	{
		OFFSET 0.028270 2.035590 -0.193380
		CHANNELS 3 Zrotation Yrotation Xrotation
		JOINT joint_10
		{
			OFFSET 0.056720 2.048850 -0.042750
			CHANNELS 3 Zrotation Yrotation Xrotation
			JOINT joint_11
			{
				OFFSET -0.054170 1.746240 0.172020
				CHANNELS 3 Zrotation Yrotation Xrotation
				JOINT joint_12
				{
					OFFSET 0.104070 1.761360 -0.123970
					CHANNELS 3 Zrotation Yrotation Xrotation
					End Site
					{
						OFFSET 0.000000 0.000000 0.000000
					}
				}
			}
			JOINT joint_13
			{
				OFFSET 3.362410 1.200890 -0.311210
				CHANNELS 3 Zrotation Yrotation Xrotation
				JOINT joint_14
				{
					OFFSET 4.983000 -0.000000 -0.000000
					CHANNELS 3 Zrotation Yrotation Xrotation
					JOINT joint_15
					{
						OFFSET 3.483560 -0.000000 -0.000000
						CHANNELS 3 Zrotation Yrotation Xrotation
						JOINT joint_16
						{
							OFFSET 0.000000 0.000000 0.000000
							CHANNELS 3 Zrotation Yrotation Xrotation
							End Site
							{
								OFFSET 0.000000 0.000000 0.000000
							}
						}
					}
				}
			}
			JOINT joint_17
			{
				OFFSET -3.136600 1.374050 -0.404650
				CHANNELS 3 Zrotation Yrotation Xrotation
				JOINT joint_18
				{
					OFFSET -5.241900 -0.000000 -0.000000
					CHANNELS 3 Zrotation Yrotation Xrotation
					JOINT joint_19
					{
						OFFSET -3.444170 -0.000000 -0.000000
						CHANNELS 3 Zrotation Yrotation Xrotation
						JOINT joint_20
						{
							OFFSET 0.000000 0.000000 0.000000
							CHANNELS 3 Zrotation Yrotation Xrotation
							End Site
							{
								OFFSET 0.000000 0.000000 0.000000
							}
						}
					}
				}
			}
		}
	}
}
MOTION
Frames: 10
Frame Time: 0.031667
0.383414 16.863363 -1.810240 -1.405944 0.763194 0.967095 -31.364130 -0.710153 -8.925602 -2.094978 2.291023 3.759623 8.299733 -0.037098 -4.261108 0.838087 -1.782391 -5.924856 14.961890 1.140639 -6.153191 4.744358 -0.696311 0.357122 -1.478854 5.522958 -12.370784 0.594864 -0.197813 -0.662825 -2.933667 -1.271140 -3.157958 -0.483353 -0.017049 16.260416 4.797429 -3.848277 11.572278 0.198796 -3.803318 2.747698 -40.185288 -6.149680 23.949126 10.878699 -8.494500 -7.860935 0.472589 -0.198976 1.070439 -6.041901 0.044866 -0.007443 15.324964 10.477657 -59.594855 -26.749358 15.307712 -22.959732 -6.064852 -2.786283 9.320796 5.993614 -0.055342 -0.088093 
0.383318 16.859610 -1.817252 -1.379972 0.747692 0.969901 -20.683023 3.052853 7.873252 -5.132902 1.195282 6.195586 -3.240787 -1.945560 -6.759375 1.280696 -1.972958 -6.790058 23.796330 2.209000 5.997625 1.328317 0.655604 -0.986285 -5.164723 5.021900 -8.786101 0.312031 -0.652597 0.549673 -4.003240 -0.049468 -9.940255 4.385442 -3.250856 13.855743 5.538733 -2.263272 15.627751 1.360067 -3.458066 3.271820 -38.990579 -5.218719 -2.582291 10.456448 -8.046274 -4.706483 5.042590 4.444019 -6.645532 -5.932088 0.028015 0.005422 22.575013 6.211026 -47.253916 -27.091705 19.341779 -32.188199 -7.879756 -3.455231 5.193406 5.921121 -0.035268 -0.055547 
0.359751 16.856756 -1.922252 -1.278687 2.231196 1.264987 -10.695849 4.228761 -2.622230 -8.458651 1.865719 6.752011 -3.866090 1.673101 -2.844036 1.287557 -2.014576 -7.057691 20.477851 1.992851 4.222745 0.816045 5.826835 -3.265805 -2.718980 5.197555 -10.106254 0.142342 -1.135883 2.023399 -4.352632 0.266625 -12.759778 6.784309 -1.973741 16.036656 -2.339290 -1.002440 10.338423 2.251906 -3.066320 2.359492 -31.212332 0.308012 3.418627 8.670429 -8.226357 -10.364998 3.184720 5.280470 -1.005473 -5.860564 0.021193 0.009830 4.660579 -1.511100 -23.827740 -24.537301 18.949885 -24.369341 -8.767316 -6.240147 5.441730 5.847503 -0.026016 -0.040708 
0.356616 16.846096 -1.948889 -0.875224 1.924792 0.723241 -7.272296 7.228527 -3.006367 -4.885302 0.589064 5.946993 1.869872 1.628764 -3.724690 1.067615 -1.241656 -4.871725 17.733941 0.402573 11.755459 -2.093175 9.488279 -12.266630 -5.504074 8.379586 -11.869917 -0.016328 -2.183405 5.080070 -5.507184 0.374653 -9.891294 1.676720 -4.955167 13.195826 1.037260 -2.228848 15.325952 2.086188 -3.260591 1.662089 -20.640038 -1.270469 4.165051 4.093209 2.748791 -7.379845 2.692440 4.583272 -1.037056 -5.677719 0.024232 0.021612 -4.802867 -2.684544 -24.677762 -20.264676 10.059463 -25.244779 -8.992090 -3.677967 3.687790 5.665421 -0.023387 -0.039961 
0.352688 16.855104 -1.909324 -1.206381 1.764283 0.913657 -13.306546 10.589787 2.796781 -1.043664 0.793152 1.692906 -3.000428 7.521258 -3.330850 0.884653 0.059690 -1.112922 19.118128 2.751597 7.466062 -7.988103 12.506991 -17.902757 -6.458112 6.179153 -12.951202 -0.521087 -4.104823 10.557674 -1.857459 5.119666 -16.255126 4.674573 1.116643 17.216803 -8.270716 -2.034616 11.852635 2.569775 -3.598960 0.954422 -11.471849 -3.834874 -0.064760 2.827153 4.425946 -9.470514 5.737745 1.237757 -1.393918 -5.563552 0.031002 0.029557 -4.890651 -0.796310 -21.363348 -23.288609 7.482776 -30.164199 -6.602437 -9.545930 -1.050576 5.562432 -0.022593 -0.042061 
0.353326 16.855556 -1.907733 -1.240121 1.724975 0.923689 -17.453795 7.126987 2.575141 1.837838 -5.197118 1.876546 -1.068756 3.620507 -4.800950 0.559234 1.410451 2.964584 16.329073 1.455962 6.734846 -9.854217 10.898987 -12.783898 -10.789455 10.633266 -7.213883 -0.579579 -6.448402 16.799888 -3.925950 1.522811 -14.635072 8.554347 -0.362084 21.531517 -1.804006 -3.371909 19.481842 3.189931 -3.483374 0.037334 -4.323138 -3.215944 -5.896035 -0.459004 9.124765 -12.457727 6.901212 4.692115 -3.711225 -5.505142 0.040336 0.040441 -10.465812 -3.410415 -15.781051 -14.187693 5.811551 -23.609158 -9.261561 -8.833486 4.631433 5.505744 -0.014040 -0.041859 
0.353497 16.856457 -1.906577 -1.280150 1.729442 0.936999 -17.021523 6.257998 6.692613 -7.453105 -0.426406 6.491778 2.708148 5.331796 -6.059834 0.267227 1.473021 3.496081 23.594868 -2.963842 6.803068 -2.916549 3.567675 -5.521678 -10.290599 1.648646 -3.369873 0.049419 -6.448172 16.656967 2.208468 -0.052583 -14.872833 8.152132 -2.915022 17.936473 -9.963587 -3.276180 10.414493 3.550078 -2.901818 -0.796985 -0.653767 -1.362974 -6.443172 -3.937554 11.942290 -8.266827 8.003821 3.081523 10.498479 -5.441371 0.031111 0.096077 -8.585876 -4.696295 -12.226991 -14.383385 5.793882 -34.343520 -7.925747 -7.270429 3.545760 5.531545 0.001563 -0.022890 
0.354524 16.854355 -1.908769 -1.262170 1.675628 0.897137 -16.353898 11.160480 4.203150 -0.682142 -1.897709 -5.515381 1.346464 -1.318980 -6.227636 -0.212623 1.403968 3.761950 13.537475 -4.893993 15.479249 -5.922668 4.024775 -7.021585 -9.468992 2.210107 1.488566 0.852807 -5.688838 14.289139 -6.124798 -2.165722 -21.952602 6.442015 -0.622489 37.271454 -4.407531 6.788045 17.236346 5.418991 -2.475198 -0.488587 4.643488 2.785515 -8.214863 -6.219140 5.187362 0.615091 1.425413 2.717288 13.483552 -5.506097 -0.007187 0.088628 -14.879407 -8.076137 -6.746124 -20.847628 9.074199 -29.186016 -11.135335 -3.400067 3.826927 5.681784 0.017123 -0.013602 
0.355215 16.853754 -1.910480 -1.258266 1.650171 0.888190 -25.507695 10.609964 11.717546 -2.571397 1.203187 -5.694558 -4.513842 -6.274069 -13.913378 -0.372878 1.777571 5.315503 15.187607 -2.537073 16.108912 -8.425435 3.551223 -5.021260 -9.499856 10.117501 2.486515 1.575224 -4.821712 11.612344 -0.274734 5.941621 -22.908407 14.877484 -6.640809 22.945365 -4.101754 3.799037 17.750731 6.644637 -1.501309 0.592468 9.837873 -1.561789 -13.736556 -10.402014 1.055019 -5.769372 5.358454 -2.822832 4.894168 -5.612962 -0.026759 0.062880 -16.936473 -7.402533 -5.884981 -16.986619 19.599206 -37.000125 -14.699585 -11.444356 3.221527 5.806867 0.012589 -0.012157 
0.354847 16.854204 -1.912898 -1.277922 1.673580 0.855423 -12.855562 6.632321 5.948199 -10.431381 3.295320 -1.259315 -8.524764 -5.701117 1.836718 0.163511 2.650968 8.025757 15.414747 -1.890464 20.733649 -10.006706 -2.038714 -9.826573 -9.309540 4.562033 -1.971967 1.690928 -5.108674 12.145004 -3.264373 -1.095477 -20.110254 6.985877 -4.935890 28.272115 -7.058887 -0.436484 14.901786 6.608011 -0.829339 1.157347 14.208015 -3.581682 -21.531292 7.072843 -5.993421 -6.515437 3.205338 1.642262 10.336205 -5.732460 -0.034975 0.057303 -20.804182 -4.340159 -15.414209 -30.702124 20.318751 -36.676477 -10.140123 -6.892284 9.299580 5.945482 0.004184 -0.011923 
